<?xml version="1.0" encoding="UTF-8"?>
<svg version="1.1" xmlns="http://www.w3.org/2000/svg" width="500" height="500">
<path d="M0 0 C0.85207031 0.69867188 1.70414063 1.39734375 2.58203125 2.1171875 C6.58955669 5.50007238 6.58955669 5.50007238 8 7 C8 7.66 8 8.32 8 9 C9.14628335 8.00051588 10.29198853 7.00036869 11.4375 6 C12.18128906 5.35546875 12.92507812 4.7109375 13.69140625 4.046875 C15.12398999 2.77669923 16.53315159 1.47889084 17.90234375 0.140625 C39.41974248 -20.48199081 69.39979623 -29.5671749 98.59765625 -29.21484375 C126.20611182 -28.43241788 151.41874248 -15.03133514 170.1484375 4.7421875 C189.55268429 26.25130173 196.97944078 54.05196772 196.13623047 82.46972656 C195.2982003 98.03486046 190.58036434 116.0103148 179.54858398 127.51342773 C174.99840244 132.31252973 173.47599466 136.82884611 171.9375 143.1875 C171.43717922 145.07031598 170.93199621 146.95184688 170.421875 148.83203125 C170.18017578 149.72873535 169.93847656 150.62543945 169.68945312 151.54931641 C163.53355117 173.43067044 146.8046013 195.61235425 127 207 C126.34 207 125.68 207 125 207 C124.63442993 207.85235229 124.63442993 207.85235229 124.26147461 208.72192383 C122.76697555 211.42081501 120.99489359 213.26424299 118.81640625 215.44921875 C117.97674316 216.29291016 117.13708008 217.13660156 116.27197266 218.00585938 C115.37784668 218.89080078 114.4837207 219.77574219 113.5625 220.6875 C112.19424072 222.0477832 112.19424072 222.0477832 110.79833984 223.43554688 C105.59435977 228.56625758 100.38803145 233.46772521 94.61328125 237.94921875 C92.02437725 239.98086987 89.55256778 242.10501716 87.07666016 244.27099609 C80.99497788 249.58510374 74.74012209 254.55999077 68.2434082 259.35644531 C63.86428212 262.59061621 59.55514092 265.89811346 55.27905273 269.26733398 C47.62549706 275.29589262 39.85222824 281.02686443 31.7578125 286.44921875 C29.26500325 288.12069409 26.83245687 289.84611901 24.4296875 291.64453125 C13.98290955 299.41130828 13.98290955 299.41130828 8.22265625 299.453125 C-1.18570165 297.53507664 -9.38980603 290.0853956 -16.98242188 284.48632812 C-19.14378985 282.89407157 -21.31368613 281.31389754 -23.484375 279.734375 C-43.13080476 265.39724133 -62.7186241 250.64845003 -80.62890625 234.16015625 C-82.64477315 232.32362512 -84.6920075 230.54121707 -86.7578125 228.76171875 C-91.13440904 224.94207868 -95.23154078 220.88105598 -99.3125 216.75 C-100.01439453 216.04359375 -100.71628906 215.3371875 -101.43945312 214.609375 C-102.73335821 213.30683565 -104.02622315 212.00326148 -105.31762695 210.69824219 C-105.87281006 210.13782227 -106.42799316 209.57740234 -107 209 C-107.51755859 208.46890625 -108.03511719 207.9378125 -108.56835938 207.390625 C-110.59949803 205.41767722 -112.87492313 203.88087226 -115.1875 202.25 C-134.85194072 187.97201814 -147.74975333 168.49983571 -154 145 C-154.26861648 143.2527607 -154.52088643 141.5028568 -154.75 139.75 C-155.70046576 134.28033854 -158.98345381 131.18198767 -162.55078125 127.09765625 C-176.72010331 109.17696663 -179.73354306 84.8185007 -177.79785156 62.68896484 C-174.45031196 34.52541937 -160.11671849 9.62288326 -138 -8 C-94.30127926 -40.11262986 -40.36120569 -33.36820007 0 0 Z " fill="#482B0E" transform="translate(241,99)"/>
<path d="M0 0 C8.14351625 6.35898028 15.48583286 13.37873883 22.41796875 21.03125 C25.60679074 23.52298067 27.93773661 23.80909162 31.9375 24 C35.61662893 22.62032665 37.59320728 20.30655368 40.0625 17.375 C54.99024334 -0.27276599 78.21908822 -13.02485787 100.9375 -17 C125.11892967 -18.74762871 147.61344655 -14.91671389 166.9375 0.5 C168.62155062 1.98045644 170.28976823 3.47922461 171.9375 5 C172.64132812 5.61230469 173.34515625 6.22460938 174.0703125 6.85546875 C187.4646425 19.17299967 198.03486181 40.31128861 199.08105469 58.49511719 C199.77422269 77.80087547 198.75351929 97.37657383 185.5 112.625 C184.01384654 114.11865928 182.49499545 115.58088829 180.9375 117 C180.30070312 117.58136719 179.66390625 118.16273438 179.0078125 118.76171875 C163.12024436 131.84753733 141.57750346 131.44763383 122.15405273 131.38818359 C119.90019477 131.39225712 117.64633881 131.39760335 115.39248657 131.40411377 C109.31612386 131.4176995 103.23991528 131.41252525 97.16355014 131.40297651 C90.77911919 131.39533529 84.39470068 131.40243776 78.01026917 131.40713501 C66.60898202 131.41292707 55.20777962 131.40365582 43.80650682 131.388357 C33.49898121 131.37495338 23.19155699 131.3772883 12.8840332 131.39111328 C0.87090648 131.40721871 -11.14214385 131.41311715 -23.1552853 131.40427649 C-29.49865998 131.39961869 -35.84196505 131.39892285 -42.18533516 131.40888596 C-48.15024205 131.41760179 -54.1149589 131.41144982 -60.07984543 131.39420319 C-62.25857034 131.39026308 -64.43731145 131.39132948 -66.61602974 131.39799118 C-88.05798561 131.45746919 -107.67266965 129.67922144 -123.9609375 114.1953125 C-136.3991295 101.10533751 -139.73449634 83.54709302 -139.60107422 66.12597656 C-138.83639965 41.64870533 -127.83948403 20.01573383 -110.3125 3.1875 C-100.18730964 -5.41570763 -88.78090747 -11.26986636 -76.0625 -15 C-74.28166016 -15.54720703 -74.28166016 -15.54720703 -72.46484375 -16.10546875 C-47.63739234 -22.12469433 -20.43552673 -14.43186916 0 0 Z " fill="#FDBC2A" transform="translate(220.0625,105)"/>
<path d="M0 0 C2.90551817 0.53895422 5.72941715 1.19419144 8.58721542 1.95501804 C21.38874077 5.28817196 33.68291682 5.56304948 46.85253906 5.50170898 C49.19698408 5.50550075 51.54142685 5.51100781 53.88586426 5.51808167 C60.19968356 5.53193848 66.51322738 5.52093692 72.82703114 5.50437045 C78.78701579 5.49184593 84.74698281 5.49614228 90.70697448 5.49950016 C102.51400471 5.50535502 114.32092771 5.49129861 126.12792969 5.46655273 C137.54984552 5.44261713 148.97161827 5.43556002 160.39355469 5.44604492 C172.87803129 5.4574849 185.36244202 5.45934796 197.84691787 5.44494683 C204.43893661 5.43740796 211.03090958 5.43348176 217.62293243 5.43945122 C223.81850846 5.44424562 230.01388815 5.43401762 236.20942688 5.41249657 C238.47403552 5.40696297 240.73866317 5.40643162 243.00327301 5.41144943 C254.78008762 5.4342597 265.5793425 5.12861991 277 2 C278.78965449 1.59516634 280.58114668 1.19830272 282.375 0.8125 C283.57125 0.544375 284.7675 0.27625 286 0 C280.10245819 19.36100898 266.43267836 36.53054921 248.80859375 46.62109375 C233.25112999 54.25918096 217.91131769 56.14653123 200.82983398 56.16113281 C199.41606011 56.16577048 198.00228747 56.17079639 196.58851624 56.17617798 C192.76991528 56.18921433 188.95133183 56.1957299 185.13271213 56.20018864 C182.73865515 56.20313415 180.34460279 56.20724168 177.95054817 56.21169281 C170.43593128 56.22534589 162.92132516 56.23502271 155.40669674 56.2388947 C146.77729064 56.24336745 138.14804356 56.26088809 129.51868576 56.2898953 C122.81851877 56.31162374 116.11839615 56.32160493 109.41819435 56.32293582 C105.4304665 56.32397608 101.44288855 56.32971523 97.45519829 56.34775543 C93.69661816 56.36443024 89.93829752 56.3662994 86.17969322 56.35761642 C84.17180846 56.35649869 82.16393154 56.37006575 80.15609741 56.3843689 C57.47703715 56.28230201 36.78751374 49.53273616 20.1875 33.8125 C10.81305485 23.91418879 4.89144564 12.62184798 0 0 Z " fill="#FCBB29" transform="translate(107,246)"/>
<path d="M0 0 C0.86132034 -0.00960754 1.72264069 -0.01921509 2.61006165 -0.02911377 C3.53820175 -0.03336365 4.46634186 -0.03761353 5.42260742 -0.04199219 C6.38075851 -0.04769226 7.33890961 -0.05339233 8.32609558 -0.05926514 C10.3544301 -0.06871263 12.38277995 -0.07524813 14.41113281 -0.07910156 C17.50572687 -0.08879717 20.5996539 -0.11981896 23.6940918 -0.15136719 C25.66609307 -0.15789849 27.63809908 -0.16314846 29.61010742 -0.16699219 C30.99320854 -0.18551239 30.99320854 -0.18551239 32.4042511 -0.20440674 C38.97357786 -0.18176581 43.35904834 0.79329364 48.15698242 5.61425781 C51.82959534 10.37032819 54.68158198 15.70382114 57.65307617 20.91113281 C58.84910048 22.98959759 60.04570941 25.06772607 61.24291992 27.14550781 C62.10820312 28.65781982 62.10820312 28.65781982 62.9909668 30.20068359 C65.10905438 33.83657403 67.3321337 37.40227416 69.59033203 40.95263672 C71.5355163 44.7704143 71.51566585 48.02422633 70.71557617 52.16113281 C69.77954102 54.33837891 69.77954102 54.33837891 68.67651367 56.43457031 C68.31090332 57.13759277 67.94529297 57.84061523 67.56860352 58.56494141 C67.28710449 59.09168457 67.00560547 59.61842773 66.71557617 60.16113281 C82.60698873 60.1238027 98.49814644 60.06370445 114.38935852 59.97723007 C121.76958533 59.93758808 129.14970781 59.90512088 136.5300293 59.89013672 C142.97016454 59.87704255 149.41006877 59.84988298 155.85007381 59.80651975 C159.25331699 59.7840773 162.65627711 59.7682116 166.05960083 59.76924896 C183.43668396 59.75837339 199.75606659 59.67470232 215.40307617 51.16113281 C216.05211914 50.83113281 216.70116211 50.50113281 217.36987305 50.16113281 C221.17700784 48.17816942 224.38718922 45.84783075 227.71557617 43.16113281 C228.37557617 43.16113281 229.03557617 43.16113281 229.71557617 43.16113281 C230.05832471 47.97865397 230.3018453 51.91531091 228.21557617 56.34863281 C215.48299087 70.67279128 198.34508322 75.74726942 179.71557617 77.16113281 C175.61637772 77.27020306 171.52223768 77.23423531 167.42211914 77.19189453 C164.9379805 77.17580398 162.4538393 77.16010532 159.96969604 77.14474487 C158.66420681 77.13520657 157.35871758 77.12566826 156.01366806 77.11584091 C151.91122053 77.08814561 147.80886107 77.0789501 143.70632935 77.07473755 C143.01141699 77.07400486 142.31650463 77.07327217 141.60053432 77.07251728 C138.73994012 77.06985667 135.87934579 77.06781004 133.01875091 77.06604171 C124.92132705 77.06025382 116.82486827 77.03626782 108.7277832 76.95898438 C102.27430182 76.89751318 95.82200135 76.87493827 89.36824906 76.89779675 C85.95947019 76.90841478 82.55328058 76.89961994 79.14489365 76.84347153 C75.34473869 76.79031015 71.55051453 76.80543419 67.75024414 76.83642578 C66.6300589 76.80465744 65.50987366 76.7728891 64.35574341 76.74015808 C61.1260202 76.80876147 58.72717467 76.98034076 55.71557617 78.16113281 C53.40994593 80.76584947 51.87032823 83.30579171 50.31201363 86.41082954 C47.93409182 90.50745487 45.18933825 92.66987879 40.71557617 94.16113281 C39.19276784 94.262423 37.66601207 94.30945173 36.13989258 94.32226562 C35.21528229 94.33187317 34.290672 94.34148071 33.33804321 94.35137939 C31.84269547 94.35775421 31.84269547 94.35775421 30.31713867 94.36425781 C29.29002777 94.36995789 28.26291687 94.37565796 27.2046814 94.38153076 C25.03091461 94.39097914 22.85713351 94.3975141 20.68334961 94.40136719 C17.36050407 94.41107459 14.03827658 94.44210066 10.71557617 94.47363281 C8.60360068 94.48016282 6.49162076 94.4854133 4.37963867 94.48925781 C3.38678864 94.50160461 2.3939386 94.51395142 1.3710022 94.52667236 C-7.40430287 94.49838238 -7.40430287 94.49838238 -11.28442383 91.16113281 C-14.25918657 87.86866692 -16.42812595 84.36390947 -18.56176758 80.48535156 C-19.15795898 79.40962891 -19.75415039 78.33390625 -20.3684082 77.22558594 C-20.98006836 76.11119141 -21.59172852 74.99679688 -22.22192383 73.84863281 C-27.5022225 64.2059526 -27.5022225 64.2059526 -33.32299805 54.88623047 C-35.27558364 51.38268303 -35.82843161 48.12589398 -35.28442383 44.16113281 C-34.21508789 41.76513672 -34.21508789 41.76513672 -32.73754883 39.20019531 C-32.18993896 38.23654053 -31.6423291 37.27288574 -31.078125 36.2800293 C-30.48620361 35.25079346 -29.89428223 34.22155762 -29.28442383 33.16113281 C-28.07622216 30.97818645 -26.86922175 28.79457485 -25.66333008 26.61035156 C-24.39266842 24.35561414 -23.12051784 22.10171519 -21.84692383 19.84863281 C-21.2172168 18.70845703 -20.58750977 17.56828125 -19.9387207 16.39355469 C-15.20631234 8.06198682 -10.5406407 0.09508771 0 0 Z " fill="#4A2D0E" transform="translate(149.284423828125,101.8388671875)"/>
<path d="M0 0 C51.48 0 102.96 0 156 0 C156 0.66 156 1.32 156 2 C154.49212839 3.37491299 152.91460239 4.67364462 151.3125 5.9375 C147.6174214 8.88790715 143.96902985 11.8632381 140.39013672 14.953125 C133.19416225 21.15355612 125.67490309 26.84907533 118.03515625 32.48828125 C116.04354754 33.96765279 114.06651498 35.46436785 112.09375 36.96875 C104.77974075 42.53801561 97.36214809 47.94133069 89.8125 53.1875 C89.01030029 53.75267334 88.20810059 54.31784668 87.3815918 54.90014648 C86.62273682 55.42165283 85.86388184 55.94315918 85.08203125 56.48046875 C84.41405518 56.94348389 83.7460791 57.40649902 83.05786133 57.88354492 C80.65138826 59.18913293 78.72625537 59.74542284 76 60 C73.41216997 58.58430475 71.2281416 57.17761865 68.875 55.4375 C68.18486816 54.94443359 67.49473633 54.45136719 66.78369141 53.94335938 C64.51056788 52.31137325 62.25509235 50.65679289 60 49 C58.40659088 47.84458183 56.81283646 46.68963973 55.21875 45.53515625 C41.39939682 35.47862948 28.0307364 24.91283928 14.80078125 14.09765625 C12.39416342 12.13070314 9.97670985 10.17937342 7.54296875 8.24609375 C6.53878906 7.44300781 5.53460938 6.63992188 4.5 5.8125 C3.6234375 5.11769531 2.746875 4.42289062 1.84375 3.70703125 C0.93109375 2.86205078 0.93109375 2.86205078 0 2 C0 1.34 0 0.68 0 0 Z " fill="#FDBC2A" transform="translate(172,318)"/>
<path d="M0 0 C12.54 0 25.08 0 38 0 C40.660625 4.49625 43.32125 8.9925 46.0625 13.625 C46.9069165 15.03217285 47.75133301 16.4393457 48.62133789 17.88916016 C49.27352295 19.01112793 49.92570801 20.1330957 50.59765625 21.2890625 C51.12353333 22.14987427 51.12353333 22.14987427 51.66003418 23.02807617 C53.29056874 25.87681227 54.00749245 27.75661172 53.90576172 31.0612793 C52.91593539 34.27274549 51.62920937 36.84313183 49.91015625 39.73046875 C49.29076172 40.78041016 48.67136719 41.83035156 48.03320312 42.91210938 C47.38287109 43.99298828 46.73253906 45.07386719 46.0625 46.1875 C45.41603516 47.27998047 44.76957031 48.37246094 44.10351562 49.49804688 C41.79987759 53.38050226 39.50444506 57.24333241 37 61 C34.35404277 61.46633656 31.94874095 61.72875424 29.28125 61.85546875 C28.51105026 61.89551529 27.74085052 61.93556183 26.9473114 61.9768219 C4.54950965 62.92374909 4.54950965 62.92374909 -1.56494141 59.60986328 C-5.15867742 56.08833375 -6.79043337 51.85469563 -8.26708984 47.11669922 C-9.40465618 43.83132276 -11.22622161 41.22057168 -13.125 38.3125 C-15.41521214 34.58167055 -16.42397405 32.37471349 -16 28 C-14.74658203 25.29272461 -14.74658203 25.29272461 -13.0078125 22.40234375 C-12.38519531 21.35369141 -11.76257813 20.30503906 -11.12109375 19.22460938 C-10.46238281 18.13986328 -9.80367187 17.05511719 -9.125 15.9375 C-7.83510833 13.78044353 -6.54601257 11.62291087 -5.2578125 9.46484375 C-4.6817627 8.512146 -4.10571289 7.55944824 -3.51220703 6.57788086 C-2.25454695 4.43392981 -1.1115966 2.2231932 0 0 Z " fill="#FCBB29" transform="translate(148,119)"/>
<path d="M0 0 C2.375 0.75 2.375 0.75 3.375 1.75 C4.49050204 10.11626532 0.36775808 18.23962722 -4.3125 25 C-8.62653349 30.3172971 -14.1198988 35.9853258 -20.9375 37.47265625 C-21.824375 37.56417969 -22.71125 37.65570313 -23.625 37.75 C-24.36328125 36.03125 -24.36328125 36.03125 -24.625 33.75 C-23.10546875 31.65625 -23.10546875 31.65625 -20.8125 29.25 C-15.60731042 23.25466427 -12.35532146 16.72722185 -8.98901367 9.56835938 C-8.59302979 8.73111328 -8.1970459 7.89386719 -7.7890625 7.03125 C-7.44311035 6.27908203 -7.0971582 5.52691406 -6.74072266 4.75195312 C-3.88611172 -0.37010588 -3.88611172 -0.37010588 0 0 Z " fill="#FEDC76" transform="translate(384.625,189.25)"/>
<path d="M0 0 C2.89094238 0.30974383 4.04691751 1.04170446 6.25 3 C8.62372655 7.06924552 8.36074407 10.40051313 8 15 C5 14 5 14 3.61328125 11.85546875 C3.18402344 10.97503906 2.75476563 10.09460938 2.3125 9.1875 C1.87550781 8.31480469 1.43851562 7.44210938 0.98828125 6.54296875 C0 4 0 4 0 0 Z " fill="#FDDD79" transform="translate(371,130)"/>
<path d="M0 0 C1 3 1 3 -0.44921875 6.1171875 C-1.17937404 7.37914881 -1.92672827 8.63125587 -2.6875 9.875 C-3.08598145 10.53250244 -3.48446289 11.19000488 -3.89501953 11.86743164 C-6.98319082 16.77400954 -10.46053725 21.16641417 -14.375 25.4375 C-14.88635498 25.99872559 -15.39770996 26.55995117 -15.92456055 27.13818359 C-17.21620006 28.49251159 -18.60226113 29.75546674 -20 31 C-20.99 31 -21.98 31 -23 31 C-22.31035156 30.29617188 -21.62070312 29.59234375 -20.91015625 28.8671875 C-13.8310731 21.48554696 -8.24965617 13.76036373 -3 5 C-2.13375 3.55947266 -2.13375 3.55947266 -1.25 2.08984375 C-0.8375 1.40019531 -0.425 0.71054687 0 0 Z " fill="#331E0E" transform="translate(404,262)"/>
<path d="M0 0 C7.77093199 2.81480425 12.09817182 14.93639548 15.5 22.0625 C17.26682847 25.86400062 18 27.74836609 18 32 C17.34 32 16.68 32 16 32 C15.81566406 31.3915625 15.63132812 30.783125 15.44140625 30.15625 C13.36976307 23.89528395 10.65909741 18.23133306 7.4375 12.5 C7.04957275 11.80583984 6.66164551 11.11167969 6.26196289 10.39648438 C4.14796303 6.65630196 4.14796303 6.65630196 1.36743164 3.41210938 C0 2 0 2 0 0 Z " fill="#36200E" transform="translate(413,109)"/>
<path d="M0 0 C2.20546941 2.03782722 3.61183616 3.87617387 4.90234375 6.58203125 C5.23556641 7.26716797 5.56878906 7.95230469 5.91210938 8.65820312 C6.25048828 9.36912109 6.58886719 10.08003906 6.9375 10.8125 C8.85456728 14.8202418 10.72694422 18.72256817 13.25390625 22.38671875 C15 25 15 25 15 27 C10.64530038 25.54843346 9.57200081 22.21127873 7.5 18.375 C7.10941406 17.67503906 6.71882813 16.97507812 6.31640625 16.25390625 C0 4.79079861 0 4.79079861 0 0 Z " fill="#341E0D" transform="translate(91,253)"/>
<path d="M0 0 C3.41664873 -0.02908357 6.8332655 -0.04682691 10.25 -0.0625 C11.70212891 -0.07506836 11.70212891 -0.07506836 13.18359375 -0.08789062 C14.11816406 -0.09111328 15.05273438 -0.09433594 16.015625 -0.09765625 C16.87446289 -0.10289307 17.73330078 -0.10812988 18.61816406 -0.11352539 C20.88670744 -0.00539986 22.82631715 0.36417577 25 1 C25 1.66 25 2.32 25 3 C16.75 2.67 8.5 2.34 0 2 C0 1.34 0 0.68 0 0 Z " fill="#4D3016" transform="translate(324,70)"/>
<path d="M0 0 C4.11700653 0.50071701 5.65210627 2.53182437 8.25 5.625 C12.1985798 10.18256475 16.34841492 14.17226514 21 18 C20.34 18.66 19.68 19.32 19 20 C15.8293305 16.85817898 12.66414446 13.71089125 9.5 10.5625 C8.59378906 9.66466797 7.68757812 8.76683594 6.75390625 7.84179688 C5.89667969 6.98779297 5.03945312 6.13378906 4.15625 5.25390625 C3.36025391 4.46314697 2.56425781 3.6723877 1.74414062 2.85766602 C0 1 0 1 0 0 Z " fill="#2D1909" transform="translate(136,309)"/>
<path d="M0 0 C0.66 0.33 1.32 0.66 2 1 C-2.29 5.29 -6.58 9.58 -11 14 C-11.66 13.67 -12.32 13.34 -13 13 C-4.738041 3.40546697 -4.738041 3.40546697 0 0 Z " fill="#EBB829" transform="translate(269,114)"/>
<path d="M0 0 C-2.45570175 1.33838733 -4.91429916 2.67086232 -7.375 4 C-8.42300781 4.57234375 -8.42300781 4.57234375 -9.4921875 5.15625 C-14.7734375 8 -14.7734375 8 -17 8 C-17 7.34 -17 6.68 -17 6 C-14.92426919 4.79715599 -12.84116905 3.61294299 -10.75 2.4375 C-9.87021484 1.92413086 -9.87021484 1.92413086 -8.97265625 1.40039062 C-5.48388498 -0.5399934 -3.78293007 -1.24059969 0 0 Z " fill="#36210E" transform="translate(129,79)"/>
<path d="M0 0 C0.66 0.33 1.32 0.66 2 1 C-1.96 4.96 -5.92 8.92 -10 13 C-10.66 12.67 -11.32 12.34 -12 12 C-10.75479583 10.55834372 -9.50362077 9.12184348 -8.25 7.6875 C-7.55390625 6.88699219 -6.8578125 6.08648437 -6.140625 5.26171875 C-4.20854665 3.22034399 -2.30056874 1.60107149 0 0 Z " fill="#E9B829" transform="translate(112,107)"/>
<path d="M0 0 C5.94 0 11.88 0 18 0 C18.33 0.99 18.66 1.98 19 3 C12.73 2.34 6.46 1.68 0 1 C0 0.67 0 0.34 0 0 Z " fill="#351E0C" transform="translate(166,71)"/>
<path d="M0 0 C4.69159716 3.38772897 9.0299782 6.78185183 13 11 C9.14129768 10.42473475 7.10501432 8.64227602 4.25 6.0625 C3.45078125 5.35222656 2.6515625 4.64195312 1.828125 3.91015625 C0 2 0 2 0 0 Z " fill="#331D0C" transform="translate(116,291)"/>
<path d="M0 0 C0 0.99 0 1.98 0 3 C-2.1875 5.04296875 -2.1875 5.04296875 -5 7.1875 C-5.928125 7.90292969 -6.85625 8.61835938 -7.8125 9.35546875 C-8.8953125 10.16951172 -8.8953125 10.16951172 -10 11 C-10 10.01 -10 9.02 -10 8 C-7.8125 5.95703125 -7.8125 5.95703125 -5 3.8125 C-4.071875 3.09707031 -3.14375 2.38164062 -2.1875 1.64453125 C-1.1046875 0.83048828 -1.1046875 0.83048828 0 0 Z " fill="#36200E" transform="translate(317,349)"/>
<path d="M0 0 C0 3 0 3 -1.96875 5.04296875 C-2.8040625 5.75066406 -3.639375 6.45835937 -4.5 7.1875 C-5.3353125 7.90292969 -6.170625 8.61835938 -7.03125 9.35546875 C-7.6809375 9.89816406 -8.330625 10.44085938 -9 11 C-9.33 10.01 -9.66 9.02 -10 8 C-6.7 5.36 -3.4 2.72 0 0 Z " fill="#38200E" transform="translate(341,329)"/>
<path d="M0 0 C5.445 1.485 5.445 1.485 11 3 C11 3.66 11 4.32 11 5 C9.741875 4.87625 8.48375 4.7525 7.1875 4.625 C6.12595703 4.52058594 6.12595703 4.52058594 5.04296875 4.4140625 C3 4 3 4 0 2 C0 1.34 0 0.68 0 0 Z " fill="#341D0B" transform="translate(241,393)"/>
<path d="M0 0 C0 0.99 0 1.98 0 3 C-1.42578125 4.421875 -1.42578125 4.421875 -3.3125 5.75 C-3.92738281 6.19859375 -4.54226563 6.6471875 -5.17578125 7.109375 C-7 8 -7 8 -10 7 C-6.7 4.69 -3.4 2.38 0 0 Z " fill="#341D0D" transform="translate(286,373)"/>
<path d="M0 0 C0 0.99 0 1.98 0 3 C-2.8125 5.75 -2.8125 5.75 -6 8 C-6.99 7.67 -7.98 7.34 -9 7 C-6.03 4.69 -3.06 2.38 0 0 Z " fill="#38220E" transform="translate(299,363)"/>
<path d="M0 0 C4.41889613 1.35021826 6.34345343 3.26115668 9 7 C6 7 6 7 4.39453125 5.46875 C3.87246094 4.8190625 3.35039062 4.169375 2.8125 3.5 C2.28269531 2.8503125 1.75289062 2.200625 1.20703125 1.53125 C0.80871094 1.0259375 0.41039062 0.520625 0 0 Z " fill="#38200C" transform="translate(148,321)"/>
<path d="M0 0 C0 3 0 3 -1.53125 4.60546875 C-2.1809375 5.12753906 -2.830625 5.64960938 -3.5 6.1875 C-4.1496875 6.71730469 -4.799375 7.24710937 -5.46875 7.79296875 C-5.9740625 8.19128906 -6.479375 8.58960938 -7 9 C-7.66 8.67 -8.32 8.34 -9 8 C-6.03 5.36 -3.06 2.72 0 0 Z " fill="#321D0C" transform="translate(328,340)"/>
<path d="M0 0 C3.59905908 0.55550695 4.99909799 1.74887248 7.25 4.5625 C8.03117187 5.52349609 8.03117187 5.52349609 8.828125 6.50390625 C9.21484375 6.99761719 9.6015625 7.49132812 10 8 C9.01 8 8.02 8 7 8 C5 5.6875 5 5.6875 3 3 C2.01769502 1.9826127 1.02530403 0.97403883 0 0 Z " fill="#2D1909" transform="translate(401,97)"/>
<path d="M0 0 C0.99 0.495 0.99 0.495 2 1 C1.01 1.495 1.01 1.495 0 2 C0 1.34 0 0.68 0 0 Z " fill="#714D29" transform="translate(74,121)"/>
<path d="M0 0 C2 1 2 1 2 1 Z " fill="#734F2B" transform="translate(117,296)"/>
<path d="" fill="#76502A" transform="translate(0,0)"/>
<path d="" fill="#664425" transform="translate(0,0)"/>
<path d="" fill="#774E2B" transform="translate(0,0)"/>
<path d="" fill="#6A4724" transform="translate(0,0)"/>
<path d="" fill="#674625" transform="translate(0,0)"/>
<path d="" fill="#754D2C" transform="translate(0,0)"/>
<path d="" fill="#744E26" transform="translate(0,0)"/>
<path d="" fill="#744F2C" transform="translate(0,0)"/>
<path d="" fill="#78522E" transform="translate(0,0)"/>
</svg>
